<svg width="139" height="32" viewBox="0 0 139 32" fill="none" xmlns="http://www.w3.org/2000/svg">
<path d="M47.0817 7.84972V10.9206H40.9388V7.84972H47.0817ZM47.0817 12.0996V31.4127H40.9388V12.0996H47.0817Z" fill="#0013A7"/>
<path d="M55.2921 12.0996L55.1888 13.8787C55.622 13.1691 56.1511 12.637 56.7763 12.2824C57.4012 11.9277 58.1223 11.7503 58.9396 11.7503C59.9635 11.7503 60.8002 11.9882 61.4499 12.4635C62.0997 12.9391 62.518 13.5381 62.7052 14.2609C62.8921 14.9837 62.9857 16.1894 62.9857 17.8774V31.4127H57.0197V18.0377C57.0197 16.7086 56.9755 15.8983 56.8867 15.6072C56.798 15.3161 56.552 15.1707 56.1485 15.1707C55.725 15.1707 55.4593 15.3381 55.3512 15.6727C55.2428 16.0074 55.1888 16.9026 55.1888 18.358V31.413H49.2228V12.0996H55.2921Z" fill="#0013A7"/>
<path d="M78.6096 7.84971V31.4127H72.6436V30.0118C72.0726 30.5954 71.4719 31.033 70.8421 31.3244C70.212 31.616 69.5523 31.762 68.8634 31.762C67.938 31.762 67.1355 31.5218 66.4564 31.0415C65.7772 30.5611 65.3415 30.0059 65.1494 29.3751C64.9574 28.7446 64.8615 27.7161 64.8615 26.2896V17.2516C64.8615 15.7672 64.9574 14.7145 65.1494 14.0933C65.3415 13.4726 65.7818 12.9267 66.4712 12.4559C67.1601 11.9854 67.9822 11.75 68.9373 11.75C69.6755 11.75 70.3524 11.8813 70.9677 12.1437C71.5829 12.4064 72.1416 12.8001 72.6439 13.3252V7.84914H78.6099L78.6096 7.84971ZM72.6436 16.9605C72.6436 16.2524 72.5819 15.7768 72.4589 15.5344C72.3357 15.2919 72.092 15.1704 71.7279 15.1704C71.3734 15.1704 71.1346 15.2796 71.0116 15.4978C70.8883 15.716 70.827 16.2037 70.827 16.9605V26.4207C70.827 27.2065 70.886 27.7234 71.0042 27.9706C71.1223 28.2181 71.3486 28.3418 71.6833 28.3418C72.0674 28.3418 72.3231 28.2034 72.4512 27.927C72.5791 27.6505 72.6433 26.9739 72.6433 25.8967L72.6436 16.9605Z" fill="#0013A7"/>
<path d="M99.0357 7.84966V31.4127H93.6012L93.5938 15.5051L91.4305 31.4127H87.5764L85.295 15.869L85.2875 31.4127H79.8531V7.84966H87.8975C88.136 9.26628 88.382 10.936 88.6354 12.8589L89.518 18.8524L90.9468 7.84966H99.0357Z" fill="#414141"/>
<path d="M114.866 22.098H107.143V26.275C107.143 27.1483 107.207 27.711 107.335 27.9633C107.463 28.2159 107.709 28.3419 108.073 28.3419C108.526 28.3419 108.828 28.1745 108.981 27.8396C109.134 27.5049 109.21 26.8572 109.21 25.8968V23.3498H114.866V24.776C114.866 25.9696 114.789 26.8864 114.637 27.5268C114.484 28.1672 114.127 28.8512 113.566 29.5791C113.005 30.3066 112.294 30.8525 111.432 31.2164C110.571 31.5804 109.49 31.7623 108.191 31.7623C106.931 31.7623 105.818 31.5826 104.853 31.2238C103.888 30.8649 103.138 30.3724 102.601 29.7467C102.065 29.1209 101.693 28.4321 101.487 27.6801C101.28 26.9283 101.176 25.8343 101.176 24.3983V18.7659C101.176 17.0776 101.407 15.7459 101.87 14.7708C102.333 13.7958 103.091 13.0488 104.144 12.5296C105.198 12.0107 106.409 11.7509 107.777 11.7509C109.451 11.7509 110.831 12.0639 111.919 12.6896C113.007 13.3154 113.77 14.1451 114.208 15.1783C114.646 16.2116 114.865 17.6648 114.865 19.5373V22.0989L114.866 22.098ZM108.885 18.9546V17.5427C108.885 16.5435 108.831 15.8983 108.723 15.6072C108.614 15.3162 108.393 15.1708 108.058 15.1708C107.645 15.1708 107.388 15.2945 107.29 15.5417C107.192 15.7892 107.143 16.4563 107.143 17.5427V18.9546H108.885Z" fill="#414141"/>
<path d="M122.958 7.84973V31.4127H116.815V7.84973H122.958Z" fill="#414141"/>
<path d="M138.671 7.84971V31.4127H132.705V30.0118C132.134 30.5954 131.533 31.033 130.903 31.3244C130.273 31.616 129.613 31.762 128.924 31.762C127.999 31.762 127.197 31.5218 126.517 31.0415C125.838 30.5611 125.402 30.0059 125.21 29.3751C125.018 28.7446 124.923 27.7161 124.923 26.2896V17.2516C124.923 15.7672 125.018 14.7145 125.21 14.0933C125.402 13.4726 125.843 12.9267 126.532 12.4559C127.221 11.9854 128.043 11.75 128.998 11.75C129.737 11.75 130.413 11.8813 131.029 12.1437C131.644 12.4064 132.203 12.8001 132.705 13.3252V7.84914H138.671L138.671 7.84971ZM132.705 16.9605C132.705 16.2524 132.643 15.7768 132.52 15.5344C132.397 15.2919 132.153 15.1704 131.789 15.1704C131.435 15.1704 131.196 15.2796 131.073 15.4978C130.95 15.716 130.888 16.2037 130.888 16.9605V26.4207C130.888 27.2065 130.947 27.7234 131.065 27.9706C131.184 28.2181 131.41 28.3418 131.745 28.3418C132.129 28.3418 132.384 28.2034 132.513 27.927C132.64 27.6505 132.705 26.9739 132.705 25.8967V16.9605H132.705Z" fill="#414141"/>
<path d="M21.8093 9.08259C23.2808 6.29276 22.1789 2.85551 19.3483 1.40526C16.5176 -0.0449907 13.03 1.04095 11.5585 3.83077L1.32324 23.2359C-0.148245 26.0258 0.953599 29.463 3.78428 30.9133C6.61497 32.3635 10.1026 31.2776 11.5741 28.4878L21.8093 9.08259Z" fill="#0013A7"/>
<path d="M31.9253 31.5563C34.9774 31.5563 37.4516 29.1178 37.4516 26.1098C37.4516 23.1018 34.9774 20.6633 31.9253 20.6633C28.8732 20.6633 26.399 23.1018 26.399 26.1098C26.399 29.1178 28.8732 31.5563 31.9253 31.5563Z" fill="#0013A7"/>
<path d="M22.4618 7.61C22.4618 6.97208 21.9371 6.45494 21.2899 6.45494C20.6426 6.45494 20.1179 6.97208 20.1179 7.61V22.1747C20.1179 22.8126 20.6426 23.3297 21.2899 23.3297C21.9371 23.3297 22.4618 22.8126 22.4618 22.1747V7.61Z" fill="#0013A7"/>
<path d="M33.8002 13.9236C34.4533 13.2798 34.4534 12.2362 33.8003 11.5925C33.1472 10.9489 32.0882 10.9489 31.4351 11.5926L25.9567 16.9919C25.3036 17.6356 25.3035 18.6793 25.9566 19.3229C26.6097 19.9666 27.6687 19.9666 28.3218 19.3228L33.8002 13.9236Z" fill="#0013A7"/>
</svg>
