<svg width="216" height="49" viewBox="0 0 216 49" fill="none" xmlns="http://www.w3.org/2000/svg">
<path d="M72.643 11.2026V16.0566H63.028V11.2026H72.643ZM72.643 17.9201V48.4474H63.028V17.9201H72.643Z" fill="#0013A7"/>
<path d="M85.4941 17.9202L85.3324 20.7323C86.0104 19.6108 86.8385 18.7697 87.8171 18.2091C88.7953 17.6485 89.924 17.368 91.2032 17.368C92.8058 17.368 94.1154 17.7441 95.1324 18.4954C96.1494 19.2471 96.8042 20.194 97.0972 21.3365C97.3898 22.4789 97.5363 24.3847 97.5363 27.0529V48.4474H88.1981V27.3062C88.1981 25.2053 88.1289 23.9246 87.99 23.4645C87.8511 23.0044 87.4661 22.7746 86.8345 22.7746C86.1717 22.7746 85.7558 23.0391 85.5865 23.5681C85.4168 24.0971 85.3324 25.5121 85.3324 27.8126V48.4478H75.9943V17.9202H85.4941Z" fill="#0013A7"/>
<path d="M121.991 11.2026V48.4474H112.653V46.2331C111.759 47.1555 110.819 47.8472 109.833 48.3078C108.847 48.7688 107.814 48.9995 106.736 48.9995C105.288 48.9995 104.032 48.6198 102.969 47.8606C101.906 47.1013 101.224 46.2238 100.923 45.2266C100.622 44.23 100.472 42.6043 100.472 40.3496V26.0637C100.472 23.7174 100.622 22.0535 100.923 21.0715C101.224 20.0904 101.913 19.2275 102.992 18.4834C104.07 17.7396 105.357 17.3676 106.852 17.3676C108.007 17.3676 109.067 17.5752 110.03 17.9899C110.993 18.4051 111.867 19.0275 112.653 19.8574V11.2017H121.991L121.991 11.2026ZM112.653 25.6036C112.653 24.4843 112.556 23.7325 112.364 23.3493C112.171 22.9661 111.79 22.7741 111.22 22.7741C110.665 22.7741 110.291 22.9466 110.098 23.2915C109.906 23.6365 109.809 24.4073 109.809 25.6036V40.5567C109.809 41.7988 109.902 42.6158 110.087 43.0066C110.272 43.3978 110.626 43.5934 111.15 43.5934C111.751 43.5934 112.151 43.3747 112.352 42.9377C112.552 42.5007 112.652 41.4311 112.652 39.7285L112.653 25.6036Z" fill="#0013A7"/>
<path d="M153.962 11.2026V48.4473H145.456L145.445 23.303L142.059 48.4473H136.026L132.455 23.8783L132.443 48.4473H123.937V11.2026H136.529C136.902 13.4417 137.287 16.081 137.684 19.1203L139.065 28.594L141.301 11.2026H153.962Z" fill="#414141"/>
<path d="M178.74 33.7242H166.651V40.3265C166.651 41.7068 166.751 42.5964 166.952 42.9951C167.152 43.3943 167.538 43.5935 168.108 43.5935C168.816 43.5935 169.29 43.329 169.529 42.7995C169.768 42.2705 169.887 41.2467 169.887 39.7286V35.7028H178.74V37.9571C178.74 39.8437 178.62 41.293 178.381 42.3052C178.142 43.3174 177.584 44.3985 176.706 45.549C175.827 46.699 174.714 47.5619 173.366 48.1371C172.017 48.7124 170.326 49 168.292 49C166.32 49 164.579 48.7159 163.068 48.1487C161.558 47.5815 160.383 46.8031 159.543 45.814C158.703 44.8248 158.122 43.7362 157.798 42.5475C157.475 41.3592 157.313 39.6299 157.313 37.3601V28.4572C157.313 25.7886 157.675 23.6837 158.399 22.1425C159.123 20.6012 160.309 19.4205 161.958 18.5999C163.607 17.7797 165.503 17.369 167.644 17.369C170.264 17.369 172.425 17.8637 174.128 18.8528C175.831 19.842 177.025 21.1534 177.711 22.7866C178.396 24.4199 178.739 26.7168 178.739 29.6766V33.7255L178.74 33.7242ZM169.379 28.7555V26.5239C169.379 24.9444 169.294 23.9246 169.125 23.4645C168.955 23.0044 168.608 22.7746 168.084 22.7746C167.437 22.7746 167.036 22.9702 166.882 23.361C166.728 23.7522 166.651 24.8066 166.651 26.5239V28.7555H169.379Z" fill="#414141"/>
<path d="M191.406 11.2027V48.4474H181.791V11.2027H191.406Z" fill="#414141"/>
<path d="M216 11.2026V48.4474H206.661V46.2331C205.768 47.1555 204.827 47.8472 203.842 48.3078C202.855 48.7688 201.823 48.9995 200.745 48.9995C199.296 48.9995 198.04 48.6198 196.977 47.8606C195.914 47.1013 195.232 46.2238 194.931 45.2266C194.631 44.23 194.481 42.6043 194.481 40.3496V26.0637C194.481 23.7174 194.631 22.0535 194.931 21.0715C195.232 20.0904 195.921 19.2275 197 18.4834C198.079 17.7396 199.365 17.3676 200.86 17.3676C202.016 17.3676 203.075 17.5752 204.038 17.9899C205.001 18.4051 205.876 19.0275 206.662 19.8574V11.2017H216L216 11.2026ZM206.662 25.6036C206.662 24.4843 206.565 23.7325 206.373 23.3493C206.18 22.9661 205.798 22.7741 205.229 22.7741C204.674 22.7741 204.3 22.9466 204.107 23.2915C203.914 23.6365 203.818 24.4073 203.818 25.6036V40.5567C203.818 41.7988 203.911 42.6158 204.096 43.0066C204.281 43.3978 204.635 43.5934 205.159 43.5934C205.76 43.5934 206.16 43.3747 206.361 42.9377C206.561 42.5007 206.661 41.4311 206.661 39.7285V25.6036H206.662Z" fill="#414141"/>
<path d="M33.0862 13.1514C35.3894 8.74166 33.6648 3.30857 29.2341 1.01624C24.8035 -1.27609 19.3446 0.4404 17.0414 4.85012L1.02106 35.5228C-1.28214 39.9325 0.442488 45.3656 4.87312 47.6579C9.30376 49.9503 14.7626 48.2338 17.0658 43.8241L33.0862 13.1514Z" fill="#0013A7"/>
<path d="M48.9199 48.6744C53.6971 48.6744 57.5698 44.82 57.5698 40.0654C57.5698 35.3107 53.6971 31.4563 48.9199 31.4563C44.1427 31.4563 40.2701 35.3107 40.2701 40.0654C40.2701 44.82 44.1427 48.6744 48.9199 48.6744Z" fill="#0013A7"/>
<path d="M34.1076 10.8237C34.1076 9.81541 33.2863 8.998 32.2732 8.998C31.26 8.998 30.4388 9.81541 30.4388 10.8237V33.8453C30.4388 34.8536 31.26 35.671 32.2732 35.671C33.2863 35.671 34.1076 34.8536 34.1076 33.8453V10.8237Z" fill="#0013A7"/>
<path d="M51.8545 20.8033C52.8768 19.7858 52.8769 18.1361 51.8546 17.1187C50.8324 16.1013 49.175 16.1014 48.1526 17.1189L39.5778 25.6532C38.5555 26.6707 38.5554 28.3203 39.5777 29.3377C40.5999 30.3551 42.2574 30.3551 43.2797 29.3376L51.8545 20.8033Z" fill="#0013A7"/>
</svg>
