<svg width="244" height="221" viewBox="0 0 244 221" fill="none" xmlns="http://www.w3.org/2000/svg">
<path d="M145.174 65.4567C154.402 47.7329 147.492 25.8959 129.741 16.6824C111.991 7.46899 90.1202 14.368 80.8926 32.0918L16.7085 155.373C7.48098 173.097 14.3905 194.934 32.1415 204.148C49.8924 213.361 71.7628 206.462 80.9903 188.738L145.174 65.4567Z" fill="#0013A7"/>
<path d="M208.61 208.233C227.749 208.233 243.265 192.741 243.265 173.631C243.265 154.521 227.749 139.029 208.61 139.029C189.471 139.029 173.955 154.521 173.955 173.631C173.955 192.741 189.471 208.233 208.61 208.233Z" fill="#0013A7"/>
<path d="M149.266 56.1013C149.266 52.0486 145.976 48.7632 141.917 48.7632C137.858 48.7632 134.567 52.0486 134.567 56.1013V148.631C134.567 152.684 137.858 155.969 141.917 155.969C145.976 155.969 149.266 152.684 149.266 148.631V56.1013Z" fill="#0013A7"/>
<path d="M220.367 96.2114C224.463 92.1218 224.463 85.4915 220.368 81.4023C216.272 77.313 209.632 77.3133 205.536 81.4029L171.182 115.705C167.086 119.794 167.086 126.424 171.181 130.514C175.277 134.603 181.917 134.603 186.013 130.513L220.367 96.2114Z" fill="#0013A7"/>
</svg>
