<svg width="191" height="44" viewBox="0 0 191 44" fill="none" xmlns="http://www.w3.org/2000/svg">
<path d="M64.8287 10.627V14.8866H56.371V10.627H64.8287ZM64.8287 16.522V43.3112H56.371V16.522H64.8287Z" fill="#0013A7"/>
<path d="M76.1328 16.522L75.9906 18.9898C76.587 18.0056 77.3154 17.2675 78.1762 16.7756C79.0367 16.2836 80.0295 16.0375 81.1547 16.0375C82.5644 16.0375 83.7163 16.3675 84.611 17.0268C85.5056 17.6865 86.0815 18.5174 86.3393 19.52C86.5966 20.5226 86.7255 22.195 86.7255 24.5364V43.3112H78.5114V24.7588C78.5114 22.9151 78.4505 21.7912 78.3283 21.3874C78.2061 20.9837 77.8674 20.782 77.3119 20.782C76.7288 20.782 76.3631 21.0141 76.2141 21.4783C76.0648 21.9426 75.9906 23.1843 75.9906 25.2031V43.3116H67.7765V16.522H76.1328Z" fill="#0013A7"/>
<path d="M108.237 10.627V43.3112H100.022V41.368C99.2363 42.1775 98.4093 42.7845 97.5422 43.1887C96.6747 43.5932 95.7663 43.7957 94.8179 43.7957C93.5438 43.7957 92.439 43.4625 91.5039 42.7962C90.5688 42.1299 89.9689 41.3598 89.7045 40.4848C89.4401 39.6102 89.308 38.1836 89.308 36.2049V23.6684C89.308 21.6094 89.4401 20.1492 89.7045 19.2875C89.9689 18.4265 90.5751 17.6693 91.5243 17.0162C92.4728 16.3636 93.6047 16.0371 94.9197 16.0371C95.9361 16.0371 96.868 16.2192 97.7151 16.5832C98.5621 16.9476 99.3314 17.4937 100.023 18.2221V10.6262H108.237L108.237 10.627ZM100.022 23.2646C100.022 22.2823 99.9376 21.6226 99.7683 21.2864C99.5986 20.9501 99.263 20.7816 98.7617 20.7816C98.2738 20.7816 97.9449 20.9329 97.7756 21.2357C97.6059 21.5384 97.5214 22.2148 97.5214 23.2646V36.3867C97.5214 37.4767 97.6027 38.1937 97.7654 38.5366C97.928 38.8799 98.2396 39.0516 98.7004 39.0516C99.2293 39.0516 99.5813 38.8596 99.7577 38.4762C99.9337 38.0927 100.022 37.1541 100.022 35.66L100.022 23.2646Z" fill="#0013A7"/>
<path d="M136.359 10.627V43.3111H128.877L128.867 21.2457L125.889 43.3111H120.582L117.441 21.7505L117.431 43.3111H109.949V10.627H121.024C121.353 12.5919 121.691 14.908 122.04 17.5752L123.255 25.8888L125.223 10.627H136.359Z" fill="#414141"/>
<path d="M158.155 30.3908H147.521V36.1847C147.521 37.396 147.609 38.1766 147.786 38.5265C147.962 38.8769 148.301 39.0516 148.802 39.0516C149.425 39.0516 149.842 38.8195 150.052 38.3549C150.262 37.8907 150.367 36.9922 150.367 35.66V32.1272H158.154V34.1054C158.154 35.7611 158.049 37.0328 157.839 37.9211C157.629 38.8094 157.138 39.7581 156.365 40.7677C155.593 41.7769 154.613 42.5341 153.427 43.0389C152.241 43.5437 150.754 43.7961 148.964 43.7961C147.229 43.7961 145.698 43.5469 144.369 43.0491C143.041 42.5513 142.007 41.8682 141.269 41.0002C140.53 40.1322 140.018 39.1769 139.734 38.1337C139.449 37.0909 139.307 35.5734 139.307 33.5815V25.7688C139.307 23.427 139.625 21.5798 140.262 20.2273C140.899 18.8748 141.943 17.8386 143.393 17.1185C144.843 16.3988 146.511 16.0383 148.395 16.0383C150.699 16.0383 152.6 16.4725 154.098 17.3405C155.595 18.2085 156.646 19.3593 157.249 20.7926C157.852 22.2258 158.154 24.2415 158.154 26.8389V30.392L158.155 30.3908ZM149.92 26.0306V24.0722C149.92 22.6861 149.846 21.7912 149.697 21.3875C149.547 20.9837 149.242 20.782 148.782 20.782C148.212 20.782 147.86 20.9537 147.724 21.2966C147.589 21.6399 147.521 22.5652 147.521 24.0722V26.0306H149.92Z" fill="#414141"/>
<path d="M169.296 10.6271V43.3112H160.839V10.6271H169.296Z" fill="#414141"/>
<path d="M190.929 10.627V43.3112H182.715V41.368C181.929 42.1775 181.102 42.7845 180.235 43.1887C179.367 43.5932 178.459 43.7957 177.511 43.7957C176.236 43.7957 175.132 43.4625 174.197 42.7962C173.262 42.1299 172.662 41.3598 172.397 40.4848C172.133 39.6102 172.001 38.1836 172.001 36.2049V23.6684C172.001 21.6094 172.133 20.1492 172.397 19.2875C172.662 18.4265 173.268 17.6693 174.217 17.0162C175.165 16.3636 176.297 16.0371 177.612 16.0371C178.629 16.0371 179.561 16.2192 180.408 16.5832C181.255 16.9476 182.024 17.4937 182.716 18.2221V10.6262H190.93L190.929 10.627ZM182.716 23.2646C182.716 22.2823 182.631 21.6226 182.461 21.2864C182.292 20.9501 181.956 20.7816 181.455 20.7816C180.967 20.7816 180.638 20.9329 180.469 21.2357C180.299 21.5384 180.214 22.2148 180.214 23.2646V36.3867C180.214 37.4767 180.296 38.1937 180.458 38.5366C180.621 38.8799 180.933 39.0516 181.394 39.0516C181.922 39.0516 182.274 38.8596 182.451 38.4762C182.627 38.0927 182.715 37.1541 182.715 35.66V23.2646H182.716Z" fill="#414141"/>
<path d="M30.0333 12.3371C32.0592 8.46739 30.5422 3.69958 26.6449 1.68795C22.7476 -0.323688 17.9458 1.18262 15.9198 5.05237L1.82784 31.9692C-0.198119 35.839 1.31891 40.6068 5.21623 42.6184C9.11355 44.6301 13.9153 43.1237 15.9413 39.254L30.0333 12.3371Z" fill="#0013A7"/>
<path d="M43.9611 43.5104C48.1633 43.5104 51.5698 40.128 51.5698 35.9556C51.5698 31.7831 48.1633 28.4007 43.9611 28.4007C39.7589 28.4007 36.3524 31.7831 36.3524 35.9556C36.3524 40.128 39.7589 43.5104 43.9611 43.5104Z" fill="#0013A7"/>
<path d="M30.9317 10.2945C30.9317 9.40967 30.2093 8.69235 29.3181 8.69235C28.4269 8.69235 27.7045 9.40967 27.7045 10.2945V30.4971C27.7045 31.382 28.4269 32.0993 29.3181 32.0993C30.2093 32.0993 30.9317 31.382 30.9317 30.4971V10.2945Z" fill="#0013A7"/>
<path d="M46.5424 19.0521C47.4417 18.1592 47.4418 16.7115 46.5426 15.8187C45.6434 14.9259 44.1854 14.9259 43.2862 15.8188L35.7435 23.3081C34.8443 24.201 34.8442 25.6487 35.7434 26.5415C36.6426 27.4343 38.1005 27.4343 38.9998 26.5414L46.5424 19.0521Z" fill="#0013A7"/>
</svg>
