<svg xmlns="http://www.w3.org/2000/svg" width="17" height="17" viewBox="0 0 17 17" fill="none">
  <path d="M11.0625 7.375C11.0625 7.99632 10.7267 8.5 10.3125 8.5C9.89829 8.5 9.5625 7.99632 9.5625 7.375C9.5625 6.75368 9.89829 6.25 10.3125 6.25C10.7267 6.25 11.0625 6.75368 11.0625 7.375Z" fill="white"/>
  <path d="M6.5625 7.375C6.5625 7.99632 6.22671 8.5 5.8125 8.5C5.39829 8.5 5.0625 7.99632 5.0625 7.375C5.0625 6.75368 5.39829 6.25 5.8125 6.25C6.22671 6.25 6.5625 6.75368 6.5625 7.375Z" fill="white"/>
  <path fill-rule="evenodd" clip-rule="evenodd" d="M8.0625 1.5625C4.23102 1.5625 1.125 4.66852 1.125 8.5C1.125 12.1421 3.93164 15.1288 7.50011 15.415C7.50122 14.299 7.5118 13.4701 7.60515 12.7883C6.81712 12.7043 6.08999 12.4059 5.47754 11.9519C5.22797 11.7669 5.17561 11.4146 5.36061 11.165C5.5456 10.9155 5.89789 10.8631 6.14746 11.0481C6.64663 11.4181 7.24024 11.6458 7.8802 11.6823C8.48876 10.0832 9.77276 8.83054 11.3928 8.26368C12.2528 7.96274 13.285 7.9393 14.9775 7.93761C14.6913 4.36914 11.7046 1.5625 8.0625 1.5625ZM14.9169 9.06306C13.225 9.06701 12.4155 9.09769 11.7643 9.32555C10.4178 9.7967 9.3592 10.8553 8.88805 12.2018C8.66019 12.853 8.62951 13.6625 8.62556 15.3544L14.9169 9.06306ZM0 8.5C0 4.0472 3.6097 0.4375 8.0625 0.4375C12.5153 0.4375 16.125 4.0472 16.125 8.5C16.125 8.77171 16.1115 9.04046 16.0852 9.30558L16.0654 9.50561L9.06811 16.5029L8.86808 16.5227C8.60296 16.549 8.33421 16.5625 8.0625 16.5625C3.6097 16.5625 0 12.9528 0 8.5Z" fill="white"/>
</svg>