<svg width="28" height="23" viewBox="0 0 28 23" fill="none" xmlns="http://www.w3.org/2000/svg">
<path d="M15.5506 6.19462C16.6331 4.11753 15.8225 1.55842 13.7401 0.478675C11.6577 -0.601068 9.09201 0.207439 8.0095 2.28453L0.479901 16.7321C-0.602607 18.8092 0.20797 21.3683 2.29038 22.4481C4.37278 23.5278 6.93845 22.7193 8.02096 20.6422L15.5506 6.19462Z" fill="#27469D"/>
<path d="M22.992 22.9267C25.2373 22.9267 27.0575 21.1112 27.0575 18.8717C27.0575 16.6321 25.2373 14.8166 22.992 14.8166C20.7467 14.8166 18.9266 16.6321 18.9266 18.8717C18.9266 21.1112 20.7467 22.9267 22.992 22.9267Z" fill="#27469D"/>
<path d="M16.0308 5.09844C16.0308 4.62349 15.6448 4.23847 15.1686 4.23847C14.6925 4.23847 14.3065 4.62349 14.3065 5.09844V15.9422C14.3065 16.4171 14.6925 16.8021 15.1686 16.8021C15.6448 16.8021 16.0308 16.4171 16.0308 15.9422V5.09844Z" fill="#27469D"/>
<path d="M24.3726 9.79872C24.8531 9.31946 24.8531 8.54245 24.3727 8.06322C23.8922 7.58399 23.1132 7.58402 22.6327 8.06329L18.6026 12.0832C18.1221 12.5624 18.122 13.3394 18.6025 13.8187C19.083 14.2979 19.862 14.2979 20.3424 13.8186L24.3726 9.79872Z" fill="#27469D"/>
</svg>
