<svg width="19" height="19" viewBox="0 0 19 19" fill="none" xmlns="http://www.w3.org/2000/svg">
<path d="M15.193 0.327716C14.5295 0.00204391 11.1662 0.374028 8.74017 2.70034C4.91939 6.51637 5.01113 11.5419 5.01113 11.5419C5.01113 11.5419 4.88525 12.0593 4.34672 11.3091C3.16872 9.80842 3.78593 6.35458 3.8548 5.87304C3.95218 5.19587 3.52022 5.17509 3.34002 5.39953C-0.915682 11.3088 2.92796 16.1482 5.44516 17.6842C8.39135 19.4818 14.2045 19.4812 16.5204 14.3806C19.4033 8.02836 16.024 0.735325 15.193 0.327716Z" fill="#1E293B"/>
<path d="M15.128 5.93233C15.4234 3.95128 15.4252 2.04297 15.1823 0.323467C14.4966 0.00640442 11.1552 0.385217 8.74134 2.70025C4.92056 6.51628 5.0123 11.5418 5.0123 11.5418C5.0123 11.5418 4.88642 12.0592 4.34789 11.309C3.16989 9.80833 3.78709 6.35448 3.85597 5.87295C3.95334 5.19578 3.52139 5.175 3.34119 5.39944C0.769063 8.97084 1.15708 12.1498 2.42088 14.4467C3.68586 15.8049 5.12541 16.6976 6.45867 16.8965C10.2587 17.4635 14.1394 12.5547 15.128 5.93233Z" fill="#9DB9FB"/>
<path d="M15.1274 5.93232C15.4228 3.95127 15.4245 2.04296 15.1817 0.323462C14.4959 0.00639908 11.8344 1.10781 9.42024 3.42343C5.59946 7.23917 5.01165 11.5418 5.01165 11.5418C5.01165 11.5418 4.88577 12.0592 4.34724 11.309C3.16924 9.80832 3.57418 7.21571 3.64335 6.73448C3.74102 6.05701 3.30877 6.03652 3.12857 6.26096C0.55674 9.83237 1.15672 12.1501 2.42082 14.4467C3.6858 15.8049 5.12535 16.6976 6.45861 16.8965C10.258 17.4635 14.1388 12.5547 15.1274 5.93232Z" fill="#3366CC"/>
</svg>
